<svg width="233" height="52" viewBox="0 0 233 52" fill="none" xmlns="http://www.w3.org/2000/svg"><g clip-path="url(#a)"><path d="M17.388 20.05v14.562H0V20.05c0-1.483 1.013-2.661 2.288-2.661H15.1c1.274 0 2.287 1.178 2.287 2.661" fill="#21d2bb"></path><path d="M17.366 32.153H0v2.514h17.366z" fill="url(#b)"></path><path d="M52 17.388v14.557c0 1.486-1.013 2.667-2.288 2.667H36.9c-1.274 0-2.288-1.18-2.288-2.667V17.387z" fill="#21d2bb"></path><path d="M52 17.366H34.634v2.546H52z" fill="url(#c)"></path><path d="M34.634 36.919v12.796A2.27 2.27 0 0 1 32.349 52H19.096a4.12 4.12 0 0 1-2.938-1.208L0 34.634h32.349a2.29 2.29 0 0 1 2.285 2.285M52 17.366H19.651a2.27 2.27 0 0 1-2.285-2.285V2.285A2.27 2.27 0 0 1 19.651 0h13.286c1.11 0 2.154.424 2.937 1.208z" fill="#6ee9d2"></path><path d="M19.096 51.347c-.947 0-1.795-.359-2.48-1.012L1.565 35.287H33.98v14.232a1.825 1.825 0 0 1-1.828 1.828z" fill="url(#d)"></path><path d="M18.019 16.713V2.481c0-1.012.816-1.828 1.828-1.828h13.057c.947 0 1.795.359 2.48 1.012l15.05 15.048z" fill="url(#e)"></path></g><path d="M83 38.955H68v-26.1h6.4v20.2h10.3zm26.5-26.1v17.1c0 2-.5 3.7-1.4 5.2-1 1.5-2.3 2.6-4 3.4s-3.6 1.2-5.8 1.2c-2.1 0-3.8-.3-5.4-1-1.5-.7-2.7-1.7-3.6-3.1s-1.3-3.1-1.3-5.2v-17.7h6.4v15.7c0 1 .1 1.9.3 2.6.2.8.7 1.4 1.3 1.8.6.5 1.4.7 2.4.7 1.9 0 3.2-.6 3.8-1.7q.9-1.65.9-4.8v-14.3zm27.7-.4v26.5h-6.9v-12.4l-5.5 5.2-5.1-5v12.2h-6.8v-26.5l11.9 10.2zm16.7 7.2c-.8-.7-1.4-1.2-2-1.5s-1.3-.5-2.1-.5c-.6 0-1.2.2-1.7.6-.6.4-.8.9-.8 1.5q0 1.35 1.8 2.1c1.2.5 2.5 1 3.8 1.5s2.4 1.3 3.4 2.4c.9 1.1 1.4 2.8 1.4 5 0 2.8-.8 4.9-2.5 6.4s-3.8 2.3-6.4 2.3c-1.5 0-2.9-.3-4.3-.8s-2.7-1.3-3.7-2.3l3.5-4.9c1.1 1.4 2.6 2.1 4.4 2.1q1.05 0 2.1-.6c.7-.4 1-1 1-1.7q0-1.35-1.8-2.1c-.5-.2-1.2-.5-1.9-.8l-1-.4-1-.4c-1.3-.5-2.4-1.4-3.4-2.4-.9-1.1-1.4-2.7-1.4-4.8 0-1.6.4-3.1 1.2-4.3s1.8-2.1 3.1-2.8c1.3-.6 2.6-1 4.1-1 1.4 0 2.7.3 4 .8s2.5 1.3 3.5 2.2zm13.5 19.3H161v-26.2h6.4v9.5h8.3v-9.5h6.4v26.1h-6.4v-10.6h-8.3zm38.8-24.9c2.1 1.2 3.8 2.9 5 5s1.9 4.4 1.9 6.9-.6 4.8-1.9 6.9c-1.2 2.1-2.9 3.8-5 5q-3.15 1.8-6.9 1.8t-6.9-1.8c-2.1-1.2-3.8-2.9-5-5s-1.9-4.4-1.9-6.9.6-4.8 1.9-6.9c1.2-2.1 2.9-3.7 5-5q3.15-1.8 6.9-1.8 3.75-.15 6.9 1.8m-10.6 5.2c-1.1.7-2 1.7-2.7 2.9s-1 2.4-1 3.8c0 1.3.3 2.6 1 3.8s1.6 2.2 2.7 2.9 2.4 1.1 3.7 1.1 2.6-.4 3.7-1.1 2-1.7 2.7-2.9 1-2.5 1-3.8-.3-2.6-1-3.8-1.6-2.1-2.7-2.9c-1.2-.7-2.4-1.1-3.7-1.1-1.4 0-2.6.4-3.7 1.1m24.1-.5h-5l-1.6-5.9h17.7l1.5 5.9h-6.2v20.2h-6.4z" fill="#fff"></path><defs><linearGradient id="b" x1="8.685" y1="31.91" x2="8.685" y2="40.878" gradientUnits="userSpaceOnUse"><stop offset=".117" stop-color="#21d2bb"></stop><stop offset="1"></stop></linearGradient><linearGradient id="c" x1="43.315" y1="19.569" x2="43.315" y2="9.534" gradientUnits="userSpaceOnUse"><stop stop-color="#21d2bb"></stop><stop offset="1"></stop></linearGradient><linearGradient id="d" x1="12.758" y1="47.809" x2="15.361" y2="45.206" gradientUnits="userSpaceOnUse"><stop stop-color="#8fe4d6"></stop><stop offset="1" stop-color="#fff" stop-opacity="0"></stop></linearGradient><linearGradient id="e" x1="38.556" y1="4.728" x2="36.049" y2="7.332" gradientUnits="userSpaceOnUse"><stop stop-color="#8fe4d6"></stop><stop offset="1" stop-color="#fff" stop-opacity="0"></stop></linearGradient><clipPath id="a"><path fill="#fff" d="M0 0h52v52H0z"></path></clipPath></defs></svg>